<svg xmlns="http://www.w3.org/2000/svg" viewBox="-32 -44 64 92" shape-rendering="crispEdges">
  <rect x="-20" y="43" width="42" height="2" fill="#00000022"/>
  <!-- Murs (crépi) -->
  <rect x="-18" y="2" width="36" height="42" fill="#1a1a1a"/>
  <rect x="-16" y="4" width="32" height="40" fill="#e8d8b8"/>
  <rect x="-16" y="4" width="32" height="2" fill="#f4e9d0"/>
  <rect x="-16" y="4" width="2" height="40" fill="#d8c49c"/>
  <!-- Bandeau de toit -->
  <rect x="-22" y="-2" width="44" height="6" fill="#1a1a1a"/>
  <rect x="-20" y="0" width="40" height="4" fill="#8f3f2c"/>
  <!-- Toit en pignon -->
  <rect x="-14" y="-8" width="28" height="8" fill="#b35238"/>
  <rect x="-9" y="-14" width="18" height="6" fill="#b35238"/>
  <rect x="-4" y="-18" width="8" height="4" fill="#b35238"/>
  <rect x="-14" y="-8" width="28" height="2" fill="#c96a4a"/>
  <rect x="-9" y="-14" width="18" height="1" fill="#c96a4a"/>
  <!-- Cheminée -->
  <rect x="8" y="-15" width="5" height="9" fill="#7a4030"/>
  <rect x="8" y="-15" width="5" height="2" fill="#9a5a44"/>
  <!-- Fenêtres + volets -->
  <g fill="#3a2a18">
    <rect x="-12" y="10" width="9" height="9"/><rect x="3" y="10" width="9" height="9"/>
  </g>
  <g fill="#ffd87a">
    <rect x="-11" y="11" width="7" height="7"/><rect x="4" y="11" width="7" height="7"/>
  </g>
  <g fill="#3a2a18">
    <rect x="-8" y="11" width="1" height="7"/><rect x="7" y="11" width="1" height="7"/>
    <rect x="-11" y="14" width="7" height="1"/><rect x="4" y="14" width="7" height="1"/>
  </g>
  <g fill="#3a6a4a">
    <rect x="-14" y="10" width="2" height="9"/><rect x="-3" y="10" width="2" height="9"/>
    <rect x="2" y="10" width="2" height="9"/><rect x="12" y="10" width="2" height="9"/>
  </g>
  <!-- Porte -->
  <rect x="-3" y="26" width="9" height="18" fill="#1a1a1a"/>
  <rect x="-2" y="27" width="7" height="17" fill="#6b4226"/>
  <rect x="2" y="34" width="2" height="2" fill="#ffd87a"/>
</svg>
