<svg xmlns="http://www.w3.org/2000/svg" viewBox="-32 -44 64 92" shape-rendering="crispEdges">
  <rect x="-28" y="43" width="58" height="2" fill="#00000022"/>
  <!-- Rangée de drapeaux (allée des Nations) -->
  <g>
    <rect x="-24" y="-40" width="1" height="10" fill="#9aa0a6"/>
    <rect x="-24" y="-40" width="6" height="4" fill="#4f93d4"/>
    <rect x="-12" y="-40" width="1" height="10" fill="#9aa0a6"/>
    <rect x="-12" y="-40" width="6" height="4" fill="#d8392b"/>
    <rect x="0" y="-40" width="1" height="10" fill="#9aa0a6"/>
    <rect x="0" y="-40" width="6" height="4" fill="#e7c14a"/>
    <rect x="12" y="-40" width="1" height="10" fill="#9aa0a6"/>
    <rect x="12" y="-40" width="6" height="4" fill="#2f9e57"/>
    <rect x="22" y="-40" width="1" height="10" fill="#9aa0a6"/>
    <rect x="22" y="-40" width="6" height="4" fill="#4f93d4"/>
  </g>
  <!-- Corps (Palais des Nations, pierre claire) -->
  <rect x="-30" y="-26" width="60" height="70" fill="#1a1a1a"/>
  <rect x="-28" y="-24" width="56" height="68" fill="#e3e1d6"/>
  <rect x="-28" y="-24" width="56" height="3" fill="#f1efe6"/>
  <rect x="-28" y="-24" width="2" height="68" fill="#cfcdc2"/>
  <!-- Corniche -->
  <rect x="-30" y="-29" width="60" height="5" fill="#cdcabf"/>
  <!-- Bandeau enseigne bleu ONU -->
  <rect x="-18" y="-20" width="36" height="11" fill="#1a3a6b"/>
  <rect x="-18" y="-20" width="36" height="2" fill="#2f5da0"/>
  <!-- ONU (lettres blanches) -->
  <g fill="#ffffff">
    <!-- O -->
    <rect x="-13" y="-17" width="4" height="1"/>
    <rect x="-13" y="-13" width="4" height="1"/>
    <rect x="-13" y="-16" width="1" height="3"/>
    <rect x="-10" y="-16" width="1" height="3"/>
    <!-- N -->
    <rect x="-6" y="-17" width="1" height="5"/>
    <rect x="-2" y="-17" width="1" height="5"/>
    <rect x="-5" y="-16" width="1" height="1"/>
    <rect x="-4" y="-15" width="1" height="1"/>
    <rect x="-3" y="-14" width="1" height="1"/>
    <!-- U -->
    <rect x="2" y="-17" width="1" height="5"/>
    <rect x="6" y="-17" width="1" height="5"/>
    <rect x="3" y="-13" width="3" height="1"/>
  </g>
  <!-- Colonnade + fenêtres -->
  <g fill="#3a4a5a">
    <rect x="-24" y="-4" width="5" height="22"/>
    <rect x="-15" y="-4" width="5" height="22"/>
    <rect x="-6" y="-4" width="5" height="22"/>
    <rect x="3" y="-4" width="5" height="22"/>
    <rect x="12" y="-4" width="5" height="22"/>
    <rect x="21" y="-4" width="5" height="22"/>
  </g>
  <g fill="#9fb6cc">
    <rect x="-23" y="-3" width="3" height="20"/>
    <rect x="-14" y="-3" width="3" height="20"/>
    <rect x="-5" y="-3" width="3" height="20"/>
    <rect x="4" y="-3" width="3" height="20"/>
    <rect x="13" y="-3" width="3" height="20"/>
    <rect x="22" y="-3" width="3" height="20"/>
  </g>
  <!-- Perron + entrée -->
  <rect x="-12" y="22" width="24" height="22" fill="#cfcdc2"/>
  <rect x="-8" y="26" width="16" height="18" fill="#2a3a4a"/>
  <rect x="-6" y="28" width="12" height="16" fill="#5a7a8a"/>
  <rect x="-1" y="28" width="1" height="16" fill="#2a3a4a"/>
</svg>
